<svg width="330" height="94" viewBox="0 0 330 94" fill="none" xmlns="http://www.w3.org/2000/svg">
<path d="M24.389 66.7V87H22.33V70.76L14.355 84.419H13.34L5.365 70.847V87H3.306V66.7H5.075L13.891 81.751L22.62 66.7H24.389ZM36.8033 87.145C35.3339 87.145 34.0096 86.8163 32.8303 86.159C31.6509 85.4823 30.7229 84.5543 30.0463 83.375C29.3696 82.1957 29.0313 80.8617 29.0313 79.373C29.0313 77.8843 29.3696 76.5503 30.0463 75.371C30.7229 74.1917 31.6509 73.2733 32.8303 72.616C34.0096 71.9587 35.3339 71.63 36.8033 71.63C38.2726 71.63 39.5969 71.9587 40.7763 72.616C41.9556 73.2733 42.8739 74.1917 43.5313 75.371C44.2079 76.5503 44.5463 77.8843 44.5463 79.373C44.5463 80.8617 44.2079 82.1957 43.5313 83.375C42.8739 84.5543 41.9556 85.4823 40.7763 86.159C39.5969 86.8163 38.2726 87.145 36.8033 87.145ZM36.8033 85.318C37.8859 85.318 38.8526 85.0763 39.7033 84.593C40.5733 84.0903 41.2499 83.3847 41.7333 82.476C42.2166 81.5673 42.4583 80.533 42.4583 79.373C42.4583 78.213 42.2166 77.1787 41.7333 76.27C41.2499 75.3613 40.5733 74.6653 39.7033 74.182C38.8526 73.6793 37.8859 73.428 36.8033 73.428C35.7206 73.428 34.7443 73.6793 33.8743 74.182C33.0236 74.6653 32.3469 75.3613 31.8443 76.27C31.3609 77.1787 31.1193 78.213 31.1193 79.373C31.1193 80.533 31.3609 81.5673 31.8443 82.476C32.3469 83.3847 33.0236 84.0903 33.8743 84.593C34.7443 85.0763 35.7206 85.318 36.8033 85.318ZM62.6699 65.482V87H60.6979V83.984C60.0792 85.0087 59.2576 85.7917 58.2329 86.333C57.2276 86.8743 56.0869 87.145 54.8109 87.145C53.3802 87.145 52.0849 86.8163 50.9249 86.159C49.7649 85.5017 48.8562 84.5833 48.1989 83.404C47.5416 82.2247 47.2129 80.881 47.2129 79.373C47.2129 77.865 47.5416 76.5213 48.1989 75.342C48.8562 74.1627 49.7649 73.254 50.9249 72.616C52.0849 71.9587 53.3802 71.63 54.8109 71.63C56.0482 71.63 57.1599 71.891 58.1459 72.413C59.1512 72.9157 59.9729 73.66 60.6109 74.646V65.482H62.6699ZM54.9849 85.318C56.0482 85.318 57.0052 85.0763 57.8559 84.593C58.7259 84.0903 59.4026 83.3847 59.8859 82.476C60.3886 81.5673 60.6399 80.533 60.6399 79.373C60.6399 78.213 60.3886 77.1787 59.8859 76.27C59.4026 75.3613 58.7259 74.6653 57.8559 74.182C57.0052 73.6793 56.0482 73.428 54.9849 73.428C53.9022 73.428 52.9259 73.6793 52.0559 74.182C51.2052 74.6653 50.5286 75.3613 50.0259 76.27C49.5426 77.1787 49.3009 78.213 49.3009 79.373C49.3009 80.533 49.5426 81.5673 50.0259 82.476C50.5286 83.3847 51.2052 84.0903 52.0559 84.593C52.9259 85.0763 53.9022 85.318 54.9849 85.318ZM81.6862 80.011H68.9262C69.0422 81.5963 69.6512 82.882 70.7532 83.868C71.8552 84.8347 73.2472 85.318 74.9292 85.318C75.8765 85.318 76.7465 85.1537 77.5392 84.825C78.3319 84.477 79.0182 83.9743 79.5982 83.317L80.7582 84.651C80.0815 85.463 79.2309 86.0817 78.2062 86.507C77.2009 86.9323 76.0892 87.145 74.8712 87.145C73.3052 87.145 71.9132 86.8163 70.6952 86.159C69.4965 85.4823 68.5589 84.5543 67.8822 83.375C67.2055 82.1957 66.8672 80.8617 66.8672 79.373C66.8672 77.8843 67.1862 76.5503 67.8242 75.371C68.4815 74.1917 69.3709 73.2733 70.4922 72.616C71.6329 71.9587 72.9089 71.63 74.3202 71.63C75.7315 71.63 76.9979 71.9587 78.1192 72.616C79.2405 73.2733 80.1202 74.1917 80.7582 75.371C81.3962 76.531 81.7152 77.865 81.7152 79.373L81.6862 80.011ZM74.3202 73.399C72.8509 73.399 71.6135 73.8727 70.6082 74.82C69.6222 75.748 69.0615 76.966 68.9262 78.474H79.7432C79.6079 76.966 79.0375 75.748 78.0322 74.82C77.0462 73.8727 75.8089 73.399 74.3202 73.399ZM87.8782 74.733C88.3615 73.7083 89.0768 72.935 90.0242 72.413C90.9908 71.891 92.1798 71.63 93.5912 71.63V73.631L93.0982 73.602C91.4935 73.602 90.2368 74.095 89.3282 75.081C88.4195 76.067 87.9652 77.4493 87.9652 79.228V87H85.9062V71.746H87.8782V74.733ZM105.091 71.63C107.005 71.63 108.523 72.1907 109.644 73.312C110.785 74.414 111.355 76.0283 111.355 78.155V87H109.296V78.358C109.296 76.7727 108.9 75.5643 108.107 74.733C107.315 73.9017 106.184 73.486 104.714 73.486C103.071 73.486 101.766 73.979 100.799 74.965C99.8519 75.9317 99.3782 77.2753 99.3782 78.996V87H97.3192V71.746H99.2912V74.559C99.8519 73.631 100.625 72.9157 101.611 72.413C102.617 71.891 103.777 71.63 105.091 71.63ZM139.499 87.319L136.686 84.419C134.965 86.2557 132.703 87.174 129.9 87.174C128.585 87.174 127.406 86.9613 126.362 86.536C125.337 86.0913 124.535 85.4823 123.955 84.709C123.375 83.9163 123.085 83.0173 123.085 82.012C123.085 80.794 123.472 79.7017 124.245 78.735C125.018 77.7683 126.333 76.7533 128.189 75.69C127.222 74.6847 126.555 73.834 126.188 73.138C125.821 72.4227 125.637 71.6687 125.637 70.876C125.637 69.5807 126.101 68.5367 127.029 67.744C127.957 66.9513 129.204 66.555 130.77 66.555C132.22 66.555 133.37 66.9127 134.221 67.628C135.072 68.3433 135.497 69.3293 135.497 70.586C135.497 71.5913 135.159 72.5 134.482 73.312C133.805 74.1047 132.636 74.9843 130.973 75.951L136.541 81.693C137.16 80.591 137.614 79.286 137.904 77.778L139.586 78.3C139.219 80.1173 138.619 81.6737 137.788 82.969L140.688 85.956L139.499 87.319ZM130.77 68.092C129.765 68.092 128.972 68.3433 128.392 68.846C127.831 69.3487 127.551 70.0157 127.551 70.847C127.551 71.4463 127.706 72.0167 128.015 72.558C128.324 73.0993 128.933 73.834 129.842 74.762C131.311 73.9113 132.326 73.1863 132.887 72.587C133.448 71.9877 133.728 71.3303 133.728 70.615C133.728 69.8417 133.467 69.2327 132.945 68.788C132.423 68.324 131.698 68.092 130.77 68.092ZM130.016 85.463C132.259 85.463 134.076 84.6993 135.468 83.172L129.349 76.879C127.744 77.7877 126.633 78.6093 126.014 79.344C125.415 80.0787 125.115 80.9003 125.115 81.809C125.115 82.911 125.56 83.8003 126.449 84.477C127.358 85.1343 128.547 85.463 130.016 85.463ZM173.042 66.7V87H170.983V70.76L163.008 84.419H161.993L154.018 70.847V87H151.959V66.7H153.728L162.544 81.751L171.273 66.7H173.042ZM179.222 71.746H181.281V87H179.222V71.746ZM180.266 68.411C179.84 68.411 179.483 68.266 179.193 67.976C178.903 67.686 178.758 67.338 178.758 66.932C178.758 66.5453 178.903 66.207 179.193 65.917C179.483 65.627 179.84 65.482 180.266 65.482C180.691 65.482 181.049 65.627 181.339 65.917C181.629 66.1877 181.774 66.5163 181.774 66.903C181.774 67.3283 181.629 67.686 181.339 67.976C181.049 68.266 180.691 68.411 180.266 68.411ZM194.782 71.63C196.696 71.63 198.213 72.1907 199.335 73.312C200.475 74.414 201.046 76.0283 201.046 78.155V87H198.987V78.358C198.987 76.7727 198.59 75.5643 197.798 74.733C197.005 73.9017 195.874 73.486 194.405 73.486C192.761 73.486 191.456 73.979 190.49 74.965C189.542 75.9317 189.069 77.2753 189.069 78.996V87H187.01V71.746H188.982V74.559C189.542 73.631 190.316 72.9157 191.302 72.413C192.307 71.891 193.467 71.63 194.782 71.63ZM206.636 71.746H208.695V87H206.636V71.746ZM207.68 68.411C207.254 68.411 206.897 68.266 206.607 67.976C206.317 67.686 206.172 67.338 206.172 66.932C206.172 66.5453 206.317 66.207 206.607 65.917C206.897 65.627 207.254 65.482 207.68 65.482C208.105 65.482 208.463 65.627 208.753 65.917C209.043 66.1877 209.188 66.5163 209.188 66.903C209.188 67.3283 209.043 67.686 208.753 67.976C208.463 68.266 208.105 68.411 207.68 68.411ZM233.448 71.63C235.362 71.63 236.86 72.181 237.943 73.283C239.045 74.385 239.596 76.009 239.596 78.155V87H237.537V78.358C237.537 76.7727 237.15 75.5643 236.377 74.733C235.623 73.9017 234.55 73.486 233.158 73.486C231.572 73.486 230.325 73.979 229.417 74.965C228.508 75.9317 228.054 77.2753 228.054 78.996V87H225.995V78.358C225.995 76.7727 225.608 75.5643 224.835 74.733C224.081 73.9017 222.998 73.486 221.587 73.486C220.021 73.486 218.774 73.979 217.846 74.965C216.937 75.9317 216.483 77.2753 216.483 78.996V87H214.424V71.746H216.396V74.53C216.937 73.602 217.691 72.8867 218.658 72.384C219.624 71.8813 220.736 71.63 221.993 71.63C223.269 71.63 224.371 71.9007 225.299 72.442C226.246 72.9833 226.952 73.7857 227.416 74.849C227.976 73.8437 228.779 73.0607 229.823 72.5C230.886 71.92 232.094 71.63 233.448 71.63ZM250.516 71.63C252.507 71.63 254.034 72.1327 255.098 73.138C256.161 74.124 256.693 75.5933 256.693 77.546V87H254.721V84.622C254.257 85.4147 253.57 86.0333 252.662 86.478C251.772 86.9227 250.709 87.145 249.472 87.145C247.77 87.145 246.417 86.739 245.412 85.927C244.406 85.115 243.904 84.042 243.904 82.708C243.904 81.4127 244.368 80.3687 245.296 79.576C246.243 78.7833 247.741 78.387 249.791 78.387H254.634V77.459C254.634 76.1443 254.266 75.1487 253.532 74.472C252.797 73.776 251.724 73.428 250.313 73.428C249.346 73.428 248.418 73.5923 247.529 73.921C246.639 74.2303 245.876 74.6653 245.238 75.226L244.31 73.689C245.083 73.0317 246.011 72.529 247.094 72.181C248.176 71.8137 249.317 71.63 250.516 71.63ZM249.791 85.521C250.951 85.521 251.946 85.26 252.778 84.738C253.609 84.1967 254.228 83.4233 254.634 82.418V79.924H249.849C247.239 79.924 245.934 80.8327 245.934 82.65C245.934 83.5393 246.272 84.245 246.949 84.767C247.625 85.2697 248.573 85.521 249.791 85.521ZM262.285 65.482H264.344V87H262.285V65.482ZM270.073 71.746H272.132V87H270.073V71.746ZM271.117 68.411C270.692 68.411 270.334 68.266 270.044 67.976C269.754 67.686 269.609 67.338 269.609 66.932C269.609 66.5453 269.754 66.207 270.044 65.917C270.334 65.627 270.692 65.482 271.117 65.482C271.542 65.482 271.9 65.627 272.19 65.917C272.48 66.1877 272.625 66.5163 272.625 66.903C272.625 67.3283 272.48 67.686 272.19 67.976C271.9 68.266 271.542 68.411 271.117 68.411ZM281.95 87.145C280.713 87.145 279.524 86.971 278.383 86.623C277.262 86.2557 276.382 85.8013 275.744 85.26L276.672 83.636C277.31 84.1387 278.113 84.5543 279.079 84.883C280.046 85.1923 281.051 85.347 282.095 85.347C283.487 85.347 284.512 85.1343 285.169 84.709C285.846 84.2643 286.184 83.6457 286.184 82.853C286.184 82.2923 286.001 81.8573 285.633 81.548C285.266 81.2193 284.802 80.9777 284.241 80.823C283.681 80.649 282.936 80.4847 282.008 80.33C280.771 80.098 279.775 79.866 279.021 79.634C278.267 79.3827 277.62 78.967 277.078 78.387C276.556 77.807 276.295 77.0047 276.295 75.98C276.295 74.704 276.827 73.66 277.89 72.848C278.954 72.036 280.433 71.63 282.327 71.63C283.313 71.63 284.299 71.7653 285.285 72.036C286.271 72.2873 287.083 72.6257 287.721 73.051L286.822 74.704C285.566 73.834 284.067 73.399 282.327 73.399C281.013 73.399 280.017 73.631 279.34 74.095C278.683 74.559 278.354 75.168 278.354 75.922C278.354 76.502 278.538 76.966 278.905 77.314C279.292 77.662 279.766 77.923 280.326 78.097C280.887 78.2517 281.66 78.416 282.646 78.59C283.864 78.822 284.841 79.054 285.575 79.286C286.31 79.518 286.938 79.9143 287.46 80.475C287.982 81.0357 288.243 81.809 288.243 82.795C288.243 84.129 287.683 85.1923 286.561 85.985C285.459 86.7583 283.922 87.145 281.95 87.145ZM300.083 86.072C299.696 86.42 299.213 86.6907 298.633 86.884C298.072 87.058 297.482 87.145 296.864 87.145C295.433 87.145 294.331 86.7583 293.558 85.985C292.784 85.2117 292.398 84.1193 292.398 82.708V73.486H289.672V71.746H292.398V68.411H294.457V71.746H299.097V73.486H294.457V82.592C294.457 83.5007 294.679 84.1967 295.124 84.68C295.588 85.144 296.245 85.376 297.096 85.376C297.521 85.376 297.927 85.3083 298.314 85.173C298.72 85.0377 299.068 84.8443 299.358 84.593L300.083 86.072ZM303.831 71.746H305.89V87H303.831V71.746ZM304.875 68.411C304.45 68.411 304.092 68.266 303.802 67.976C303.512 67.686 303.367 67.338 303.367 66.932C303.367 66.5453 303.512 66.207 303.802 65.917C304.092 65.627 304.45 65.482 304.875 65.482C305.3 65.482 305.658 65.627 305.948 65.917C306.238 66.1877 306.383 66.5163 306.383 66.903C306.383 67.3283 306.238 67.686 305.948 67.976C305.658 68.266 305.3 68.411 304.875 68.411ZM317.941 87.145C316.433 87.145 315.08 86.8163 313.881 86.159C312.702 85.5017 311.774 84.5833 311.097 83.404C310.42 82.2053 310.082 80.8617 310.082 79.373C310.082 77.8843 310.42 76.5503 311.097 75.371C311.774 74.1917 312.702 73.2733 313.881 72.616C315.08 71.9587 316.433 71.63 317.941 71.63C319.256 71.63 320.425 71.891 321.45 72.413C322.494 72.9157 323.316 73.66 323.915 74.646L322.378 75.69C321.875 74.936 321.237 74.3753 320.464 74.008C319.691 73.6213 318.85 73.428 317.941 73.428C316.839 73.428 315.843 73.6793 314.954 74.182C314.084 74.6653 313.398 75.3613 312.895 76.27C312.412 77.1787 312.17 78.213 312.17 79.373C312.17 80.5523 312.412 81.5963 312.895 82.505C313.398 83.3943 314.084 84.0903 314.954 84.593C315.843 85.0763 316.839 85.318 317.941 85.318C318.85 85.318 319.691 85.1343 320.464 84.767C321.237 84.3997 321.875 83.839 322.378 83.085L323.915 84.129C323.316 85.115 322.494 85.869 321.45 86.391C320.406 86.8937 319.236 87.145 317.941 87.145Z" fill="#7B8792"/>
<path d="M12.096 20.086V31.588H30.348V37.528H12.096V52H5.076V14.2H32.67V20.086H12.096ZM56.6949 52.54C52.8429 52.54 49.3689 51.712 46.2729 50.056C43.1769 48.364 40.7469 46.042 38.9829 43.09C37.2189 40.102 36.3369 36.772 36.3369 33.1C36.3369 29.428 37.2189 26.116 38.9829 23.164C40.7469 20.176 43.1769 17.854 46.2729 16.198C49.3689 14.506 52.8429 13.66 56.6949 13.66C60.5469 13.66 64.0209 14.506 67.1169 16.198C70.2129 17.854 72.6429 20.158 74.4069 23.11C76.1709 26.062 77.0529 29.392 77.0529 33.1C77.0529 36.808 76.1709 40.138 74.4069 43.09C72.6429 46.042 70.2129 48.364 67.1169 50.056C64.0209 51.712 60.5469 52.54 56.6949 52.54ZM56.6949 46.384C59.2149 46.384 61.4829 45.826 63.4989 44.71C65.5149 43.558 67.0989 41.974 68.2509 39.958C69.4029 37.906 69.9789 35.62 69.9789 33.1C69.9789 30.58 69.4029 28.312 68.2509 26.296C67.0989 24.244 65.5149 22.66 63.4989 21.544C61.4829 20.392 59.2149 19.816 56.6949 19.816C54.1749 19.816 51.9069 20.392 49.8909 21.544C47.8749 22.66 46.2909 24.244 45.1389 26.296C43.9869 28.312 43.4109 30.58 43.4109 33.1C43.4109 35.62 43.9869 37.906 45.1389 39.958C46.2909 41.974 47.8749 43.558 49.8909 44.71C51.9069 45.826 54.1749 46.384 56.6949 46.384ZM109.226 52L101.504 40.93C101.18 40.966 100.694 40.984 100.046 40.984H91.514V52H84.494V14.2H100.046C103.322 14.2 106.166 14.74 108.578 15.82C111.026 16.9 112.898 18.448 114.194 20.464C115.49 22.48 116.138 24.874 116.138 27.646C116.138 30.49 115.436 32.938 114.032 34.99C112.664 37.042 110.684 38.572 108.092 39.58L116.786 52H109.226ZM109.064 27.646C109.064 25.234 108.272 23.38 106.688 22.084C105.104 20.788 102.782 20.14 99.722 20.14H91.514V35.206H99.722C102.782 35.206 105.104 34.558 106.688 33.262C108.272 31.93 109.064 30.058 109.064 27.646ZM157.58 14.2V52H151.802L130.958 26.404V52H123.992V14.2H129.77L150.614 39.796V14.2H157.58ZM167.709 14.2H174.729V52H167.709V14.2ZM192.621 20.14H180.093V14.2H212.169V20.14H199.641V52H192.621V20.14ZM233.006 52.54C227.786 52.54 223.718 51.082 220.802 48.166C217.886 45.214 216.428 41.002 216.428 35.53V14.2H223.448V35.26C223.448 42.676 226.652 46.384 233.06 46.384C239.432 46.384 242.618 42.676 242.618 35.26V14.2H249.53V35.53C249.53 41.002 248.072 45.214 245.156 48.166C242.276 51.082 238.226 52.54 233.006 52.54ZM284.093 52L276.371 40.93C276.047 40.966 275.561 40.984 274.913 40.984H266.381V52H259.361V14.2H274.913C278.189 14.2 281.033 14.74 283.445 15.82C285.893 16.9 287.765 18.448 289.061 20.464C290.357 22.48 291.005 24.874 291.005 27.646C291.005 30.49 290.303 32.938 288.899 34.99C287.531 37.042 285.551 38.572 282.959 39.58L291.653 52H284.093ZM283.931 27.646C283.931 25.234 283.139 23.38 281.555 22.084C279.971 20.788 277.649 20.14 274.589 20.14H266.381V35.206H274.589C277.649 35.206 279.971 34.558 281.555 33.262C283.139 31.93 283.931 30.058 283.931 27.646ZM327.209 46.114V52H298.859V14.2H326.453V20.086H305.879V29.914H324.131V35.692H305.879V46.114H327.209Z" fill="#11284D"/>
</svg>
